<svg xmlns="http://www.w3.org/2000/svg" viewBox="0 0 512 512">
  <defs>
    <radialGradient id="croissantGrad" cx="50%" cy="50%">
      <stop offset="0%" style="stop-color:#F4A460"/>
      <stop offset="100%" style="stop-color:#D2691E"/>
    </radialGradient>
  </defs>
  <path d="M456.1 71.9c-23.2-17.4-50.4-26.2-78.1-24.8-40.4 2.1-79.3 22.5-109.4 57.4-20.8 24.1-35.2 52.7-42.9 83.5-7.1 28.3-8.1 58.2-3 86.8 5.9 33.1 19.3 64.1 39.2 89.7 30.1 38.7 73.4 63.2 119.6 67.7 27.7 2.7 55.9-3.6 79.9-18.2 16.9-10.3 31.3-24.9 41.5-42.5 18.1-31.2 23.3-69.9 14.2-104.8-8.7-33.2-27.6-62.4-54.2-82.9-15.2-11.7-32.6-20.3-50.8-25.4-16.8-4.7-34.4-6.2-51.6-4.4z" fill="url(#croissantGrad)"/>
  <ellipse cx="100" cy="400" rx="60" ry="80" fill="url(#croissantGrad)" transform="rotate(-30 100 400)"/>
  <ellipse cx="400" cy="150" rx="40" ry="60" fill="url(#croissantGrad)" transform="rotate(45 400 150)"/>
</svg>