<svg xmlns="http://www.w3.org/2000/svg" fill="none" viewBox="0 0 128 128">
    <defs>
        <linearGradient id="croissantGradient" x1="0%" y1="0%" x2="100%" y2="100%">
            <stop offset="0%" style="stop-color:#F4A460;stop-opacity:1" />
            <stop offset="50%" style="stop-color:#DEB887;stop-opacity:1" />
            <stop offset="100%" style="stop-color:#D2691E;stop-opacity:1" />
        </linearGradient>
    </defs>
    
    <!-- Main croissant body -->
    <path d="M25 45C30 35, 45 30, 60 35C75 25, 90 30, 100 45C105 55, 95 70, 85 75C80 85, 70 90, 55 85C45 90, 35 85, 30 75C20 65, 20 55, 25 45Z" 
          fill="url(#croissantGradient)" stroke="#8B4513" stroke-width="2"/>
    
    <!-- Croissant curves and details -->
    <path d="M35 50C40 45, 50 45, 55 50" fill="none" stroke="#8B4513" stroke-width="1.5"/>
    <path d="M45 65C50 60, 60 60, 65 65" fill="none" stroke="#8B4513" stroke-width="1.5"/>
    <path d="M70 45C75 40, 85 40, 90 45" fill="none" stroke="#8B4513" stroke-width="1.5"/>
    
    <!-- Croissant ends -->
    <ellipse cx="28" cy="50" rx="8" ry="12" fill="url(#croissantGradient)" stroke="#8B4513" stroke-width="1.5"/>
    <ellipse cx="95" cy="70" rx="6" ry="10" fill="url(#croissantGradient)" stroke="#8B4513" stroke-width="1.5"/>
    
    <!-- Texture dots -->
    <circle cx="45" cy="55" r="2" fill="#8B4513" opacity="0.6"/>
    <circle cx="65" cy="50" r="2" fill="#8B4513" opacity="0.6"/>
    <circle cx="75" cy="65" r="2" fill="#8B4513" opacity="0.6"/>
    <circle cx="55" cy="70" r="1.5" fill="#8B4513" opacity="0.6"/>
    
    <style>
        @media (prefers-color-scheme: dark) {
            path { filter: brightness(0.9); }
        }
    </style>
</svg>